<svg width="17" height="16" viewBox="0 0 17 16" fill="none" xmlns="http://www.w3.org/2000/svg">
<mask id="mask0_10694_18409" style="mask-type:alpha" maskUnits="userSpaceOnUse" x="2" y="0" width="13" height="16">
<path fill-rule="evenodd" clip-rule="evenodd" d="M9.6742 1.33425C9.6742 1.87156 9.31318 2.32455 8.82047 2.46388C11.3218 2.62901 13.2995 4.7102 13.2995 7.25332V10.9333C13.2995 11.7934 13.3346 12.4879 14.0714 12.8563C14.2926 12.9669 14.4088 13.2151 14.3519 13.4559C14.2951 13.6966 14.0802 13.8667 13.8329 13.8667H9.20508C9.42652 14.0621 9.56618 14.3481 9.56618 14.6667C9.56618 15.2558 9.08862 15.7333 8.49952 15.7333C7.91041 15.7333 7.43285 15.2558 7.43285 14.6667C7.43285 14.3481 7.57251 14.0621 7.79395 13.8667H3.1662C2.91885 13.8667 2.70396 13.6966 2.64713 13.4559C2.5903 13.2151 2.70645 12.9669 2.92768 12.8563C3.66443 12.4879 3.69953 11.7934 3.69953 10.9333V7.25332C3.69953 4.70972 5.678 2.62823 8.18 2.46379C7.68746 2.32435 7.32659 1.87144 7.32659 1.33425C7.32659 0.685975 7.85212 0.160446 8.5004 0.160446C9.14867 0.160446 9.6742 0.685975 9.6742 1.33425ZM8.49953 3.51999C6.43767 3.51999 4.7662 5.19146 4.7662 7.25332V10.9333L4.76624 10.9877C4.76674 11.4628 4.7675 12.1689 4.44545 12.8H12.5536C12.2316 12.1689 12.2323 11.4628 12.2328 10.9877L12.2329 10.9333V7.25332C12.2329 5.19146 10.5614 3.51999 8.49953 3.51999Z" fill="#0891B2"/>
</mask>
<g mask="url(#mask0_10694_18409)">
<rect x="0.5" width="16" height="16" fill="#262564"/>
</g>
</svg>
