<svg width="28" height="28" viewBox="0 0 28 28" fill="none" xmlns="http://www.w3.org/2000/svg">
<mask id="mask0_10762_23544" style="mask-type:alpha" maskUnits="userSpaceOnUse" x="4" y="4" width="20" height="20">
<path fill-rule="evenodd" clip-rule="evenodd" d="M14.9326 5.13328C14.9326 4.61782 14.5147 4.19995 13.9992 4.19995C13.4838 4.19995 13.0659 4.61782 13.0659 5.13328V13.0666H5.13255C4.61709 13.0666 4.19922 13.4845 4.19922 14C4.19922 14.5154 4.61709 14.9333 5.13255 14.9333H13.0659V22.8666C13.0659 23.3821 13.4838 23.7999 13.9992 23.7999C14.5147 23.7999 14.9326 23.3821 14.9326 22.8666V14.9333H22.8659C23.3813 14.9333 23.7992 14.5154 23.7992 14C23.7992 13.4845 23.3813 13.0666 22.8659 13.0666H14.9326V5.13328Z" fill="#0891B2"/>
</mask>
<g mask="url(#mask0_10762_23544)">
<rect width="28" height="28" fill="#262564"/>
</g>
</svg>
