<svg width="12" height="13" viewBox="0 0 12 13" fill="none" xmlns="http://www.w3.org/2000/svg">
<g id="Calendar Mark" clip-path="url(#clip0_5852_41543)">
<g id="calendar-mark--calendar-date-day-month-mark">
<path id="Rectangle 1097" d="M0.96475 10.4932C1.0435 11.0422 1.463 11.456 2.01275 11.5292C2.79525 11.6337 4.10775 11.754 6 11.754C7.892 11.754 9.2045 11.6337 9.98725 11.5292C10.537 11.456 10.9565 11.0422 11.0352 10.4932C11.1372 9.78225 11.25 8.65125 11.25 7.129C11.25 5.6065 11.1372 4.4755 11.0352 3.7645C10.9565 3.2155 10.537 2.802 9.98725 2.7285C9.20475 2.62425 7.89225 2.504 6 2.504C4.108 2.504 2.7955 2.624 2.01275 2.7285C1.463 2.80175 1.0435 3.2155 0.96475 3.7645C0.86275 4.4755 0.75 5.6065 0.75 7.129C0.75 8.65125 0.86275 9.78225 0.96475 10.4932Z" fill="white"/>
<path id="Subtract" d="M2.75075 2.6445C2.4665 2.672 2.22075 2.70075 2.01275 2.7285C1.463 2.80175 1.0435 3.2155 0.96475 3.7645C0.86275 4.4755 0.75 5.60675 0.75 7.129C0.75 8.6515 0.86275 9.7825 0.96475 10.4935C1.0435 11.0425 1.463 11.456 2.01275 11.5295C2.79525 11.6338 4.10775 11.754 6 11.754C7.892 11.754 9.2045 11.6338 9.98725 11.5295C10.537 11.456 10.9565 11.0425 11.0352 10.4935C11.1372 9.7825 11.25 8.65125 11.25 7.129C11.25 5.6065 11.1372 4.4755 11.0352 3.7645C10.9565 3.2155 10.537 2.802 9.98725 2.7285C9.74178 2.69606 9.49574 2.66805 9.24925 2.6445" stroke="black" stroke-width="0.5" stroke-linecap="round" stroke-linejoin="round"/>
<path id="Subtract_2" d="M7.25 2.5225C6.83345 2.50998 6.41674 2.50382 6 2.504C5.551 2.504 5.1345 2.51075 4.75 2.5225" stroke="black" stroke-width="0.5" stroke-linecap="round" stroke-linejoin="round"/>
<path id="Vector 1380" d="M5.5 6.75H6.5" stroke="black" stroke-width="0.5" stroke-linecap="round" stroke-linejoin="round"/>
<path id="Vector 1381" d="M8 6.75H9" stroke="black" stroke-width="0.5" stroke-linecap="round" stroke-linejoin="round"/>
<path id="Vector 1382" d="M4 6.75H3" stroke="black" stroke-width="0.5" stroke-linecap="round" stroke-linejoin="round"/>
<path id="Vector 1383" d="M5.5 9.25H6.5" stroke="black" stroke-width="0.5" stroke-linecap="round" stroke-linejoin="round"/>
<path id="Vector 1384" d="M8 9.25H9" stroke="black" stroke-width="0.5" stroke-linecap="round" stroke-linejoin="round"/>
<path id="Vector 1385" d="M4 9.25H3" stroke="black" stroke-width="0.5" stroke-linecap="round" stroke-linejoin="round"/>
<path id="Vector" d="M2.75329 2.8175C2.76404 3.3375 3.10554 3.741 3.62554 3.749C3.70854 3.75026 3.79155 3.75026 3.87454 3.749C4.39454 3.741 4.73604 3.3375 4.74679 2.8175C4.75118 2.60586 4.75118 2.39415 4.74679 2.1825C4.73604 1.6625 4.39454 1.259 3.87454 1.251C3.79155 1.24973 3.70854 1.24973 3.62554 1.251C3.10554 1.259 2.76404 1.6625 2.75329 2.1825C2.7489 2.39415 2.7489 2.60586 2.75329 2.8175Z" fill="#F3F4F6"/>
<path id="Vector_2" d="M7.25329 2.8175C7.26404 3.3375 7.60554 3.741 8.12554 3.749C8.20854 3.75026 8.29155 3.75026 8.37454 3.749C8.89454 3.741 9.23604 3.3375 9.24679 2.8175C9.25118 2.60586 9.25118 2.39415 9.24679 2.1825C9.23604 1.6625 8.89454 1.259 8.37454 1.251C8.29155 1.24973 8.20854 1.24973 8.12554 1.251C7.60554 1.259 7.26404 1.6625 7.25329 2.1825C7.2489 2.39415 7.2489 2.60586 7.25329 2.8175Z" fill="#F3F4F6"/>
<path id="Vector_3" d="M2.75329 2.8175C2.76404 3.3375 3.10554 3.741 3.62554 3.749C3.70854 3.75026 3.79155 3.75026 3.87454 3.749C4.39454 3.741 4.73604 3.3375 4.74679 2.8175C4.75118 2.60586 4.75118 2.39415 4.74679 2.1825C4.73604 1.6625 4.39454 1.259 3.87454 1.251C3.79155 1.24973 3.70854 1.24973 3.62554 1.251C3.10554 1.259 2.76404 1.6625 2.75329 2.1825C2.7489 2.39415 2.7489 2.60586 2.75329 2.8175Z" stroke="black" stroke-width="0.5" stroke-linecap="round" stroke-linejoin="round"/>
<path id="Vector_4" d="M7.25329 2.8175C7.26404 3.3375 7.60554 3.741 8.12554 3.749C8.20854 3.75026 8.29155 3.75026 8.37454 3.749C8.89454 3.741 9.23604 3.3375 9.24679 2.8175C9.25118 2.60586 9.25118 2.39415 9.24679 2.1825C9.23604 1.6625 8.89454 1.259 8.37454 1.251C8.29155 1.24973 8.20854 1.24973 8.12554 1.251C7.60554 1.259 7.26404 1.6625 7.25329 2.1825C7.2489 2.39415 7.2489 2.60586 7.25329 2.8175Z" stroke="black" stroke-width="0.5" stroke-linecap="round" stroke-linejoin="round"/>
</g>
</g>
<defs>
<clipPath id="clip0_5852_41543">
<rect width="12" height="12" fill="white" transform="translate(0 0.5)"/>
</clipPath>
</defs>
</svg>
