<svg width="25" height="24" viewBox="0 0 25 24" fill="none" xmlns="http://www.w3.org/2000/svg">
<mask id="mask0_10734_6430" style="mask-type:alpha" maskUnits="userSpaceOnUse" x="1" y="1" width="23" height="22">
<path fill-rule="evenodd" clip-rule="evenodd" d="M12.4989 1.40326C6.64658 1.40326 1.90234 6.14749 1.90234 11.9998C1.90234 17.852 6.64658 22.5963 12.4989 22.5963C18.3511 22.5963 23.0954 17.852 23.0954 11.9998C23.0954 6.14749 18.3511 1.40326 12.4989 1.40326ZM3.42234 11.9998C3.42234 6.98697 7.48605 2.92326 12.4989 2.92326C17.5117 2.92326 21.5754 6.98697 21.5754 11.9998C21.5754 17.0126 17.5117 21.0763 12.4989 21.0763C7.48605 21.0763 3.42234 17.0126 3.42234 11.9998ZM16.7533 8.86038C17.0076 8.49905 16.9208 8 16.5595 7.74574C16.1981 7.49147 15.6991 7.57826 15.4448 7.93959L10.9306 14.3545L9.06991 12.4593C8.76037 12.144 8.25386 12.1394 7.93859 12.4489C7.62332 12.7585 7.61867 13.265 7.92822 13.5802L10.4615 16.1605C10.6279 16.3299 10.8609 16.4167 11.0975 16.3973C11.3342 16.378 11.55 16.2545 11.6866 16.0604L16.7533 8.86038Z" fill="#0891B2"/>
</mask>
<g mask="url(#mask0_10734_6430)">
<rect x="0.5" width="24" height="24" fill="black"/>
</g>
</svg>
