<svg width="24" height="24" viewBox="0 0 24 24" fill="none" xmlns="http://www.w3.org/2000/svg">
<mask id="mask0_11138_46283" style="mask-type:alpha" maskUnits="userSpaceOnUse" x="4" y="4" width="16" height="16">
<path fill-rule="evenodd" clip-rule="evenodd" d="M18.8514 6.45042C19.2107 6.09114 19.2107 5.50863 18.8514 5.14934C18.4921 4.79006 17.9096 4.79006 17.5503 5.14934L12.0009 10.6988L6.4514 5.14934C6.09212 4.79006 5.5096 4.79006 5.15032 5.14934C4.79104 5.50863 4.79104 6.09114 5.15032 6.45042L10.6998 11.9999L5.15032 17.5493C4.79104 17.9086 4.79104 18.4911 5.15032 18.8504C5.5096 19.2097 6.09212 19.2097 6.4514 18.8504L12.0009 13.301L17.5503 18.8504C17.9096 19.2097 18.4921 19.2097 18.8514 18.8504C19.2107 18.4911 19.2107 17.9086 18.8514 17.5493L13.3019 11.9999L18.8514 6.45042Z" fill="#0891B2"/>
</mask>
<g mask="url(#mask0_11138_46283)">
<rect width="24" height="24" fill="#262564"/>
</g>
</svg>
