<svg width="19" height="4" viewBox="0 0 19 4" fill="none" xmlns="http://www.w3.org/2000/svg">
<path d="M2.63281 0.330078C3.12891 0.330078 3.55273 0.505859 3.9043 0.857422C4.25586 1.20898 4.43164 1.63281 4.43164 2.12891C4.43164 2.62891 4.25586 3.05469 3.9043 3.40625C3.55273 3.75781 3.12891 3.93359 2.63281 3.93359C2.13672 3.93359 1.71289 3.75781 1.36133 3.40625C1.00977 3.05469 0.833984 2.62891 0.833984 2.12891C0.833984 1.63281 1.00977 1.20898 1.36133 0.857422C1.71289 0.505859 2.13672 0.330078 2.63281 0.330078ZM9.91016 0.330078C10.4062 0.330078 10.8301 0.505859 11.1816 0.857422C11.5332 1.20898 11.709 1.63281 11.709 2.12891C11.709 2.62891 11.5332 3.05469 11.1816 3.40625C10.8301 3.75781 10.4062 3.93359 9.91016 3.93359C9.41406 3.93359 8.99023 3.75781 8.63867 3.40625C8.28711 3.05469 8.11133 2.62891 8.11133 2.12891C8.11133 1.63281 8.28711 1.20898 8.63867 0.857422C8.99023 0.505859 9.41406 0.330078 9.91016 0.330078ZM17.1875 0.330078C17.6836 0.330078 18.1074 0.505859 18.459 0.857422C18.8105 1.20898 18.9863 1.63281 18.9863 2.12891C18.9863 2.62891 18.8105 3.05469 18.459 3.40625C18.1074 3.75781 17.6836 3.93359 17.1875 3.93359C16.6914 3.93359 16.2676 3.75781 15.916 3.40625C15.5645 3.05469 15.3887 2.62891 15.3887 2.12891C15.3887 1.63281 15.5645 1.20898 15.916 0.857422C16.2676 0.505859 16.6914 0.330078 17.1875 0.330078Z" fill="#1F1C58"/>
</svg>
