<svg width="16" height="16" viewBox="0 0 16 16" fill="none" xmlns="http://www.w3.org/2000/svg">
<mask id="mask0_10694_45541" style="mask-type:alpha" maskUnits="userSpaceOnUse" x="2" y="1" width="12" height="14">
<path fill-rule="evenodd" clip-rule="evenodd" d="M7.99953 1.12C8.26463 1.12 8.47953 1.3349 8.47953 1.6V8.97451L10.8601 6.59392C11.0476 6.40647 11.3515 6.40647 11.5389 6.59392C11.7264 6.78137 11.7264 7.08529 11.5389 7.27274L8.33894 10.4727C8.15149 10.6602 7.84757 10.6602 7.66012 10.4727L4.46012 7.27274C4.27267 7.08529 4.27267 6.78137 4.46012 6.59392C4.64757 6.40647 4.95149 6.40647 5.13894 6.59392L7.51953 8.97451V1.6C7.51953 1.3349 7.73443 1.12 7.99953 1.12ZM2.66615 10.6667C2.9607 10.6667 3.19948 10.9055 3.19948 11.2V12.8C3.19948 13.3908 3.67484 13.8667 4.26225 13.8667H11.734C12.3226 13.8667 12.7995 13.3896 12.7995 12.8V11.2C12.7995 10.9055 13.0383 10.6667 13.3328 10.6667C13.6274 10.6667 13.8661 10.9055 13.8661 11.2V12.8C13.8661 13.9777 12.9128 14.9333 11.734 14.9333H4.26225C3.08235 14.9333 2.13281 13.9765 2.13281 12.8V11.2C2.13281 10.9055 2.37159 10.6667 2.66615 10.6667Z" fill="#0891B2"/>
</mask>
<g mask="url(#mask0_10694_45541)">
<rect width="16" height="16" fill="black"/>
</g>
</svg>
