<svg width="15" height="15" viewBox="0 0 15 15" fill="none" xmlns="http://www.w3.org/2000/svg">
<mask id="mask0_10298_10546" style="mask-type:alpha" maskUnits="userSpaceOnUse" x="0" y="0" width="15" height="14">
<path fill-rule="evenodd" clip-rule="evenodd" d="M7.07926 0.222314C7.31275 -0.00737304 7.6873 -0.00737304 7.92079 0.222314L14.6708 6.86233C14.907 7.09472 14.9101 7.4746 14.6778 7.71083C14.4454 7.94707 14.0655 7.95019 13.8293 7.7178L13 6.90208V12.5001C13 12.7762 12.7762 13.0001 12.5 13.0001H2.50002C2.22388 13.0001 2.00002 12.7762 2.00002 12.5001V6.90208L1.17079 7.7178C0.934558 7.95019 0.554672 7.94707 0.32229 7.71083C0.0899079 7.4746 0.0930283 7.09472 0.32926 6.86233L7.07926 0.222314ZM7.50002 1.49169L12 5.91837V12.0001H10V8.50007C10 8.22392 9.77617 8.00006 9.50002 8.00006H6.50002C6.22388 8.00006 6.00002 8.22392 6.00002 8.50007V12.0001H3.00002V5.91837L7.50002 1.49169ZM7.00002 12.0001H9.00002V9.00007H7.00002V12.0001Z" fill="#0891B2"/>
</mask>
<g mask="url(#mask0_10298_10546)">
<rect width="15" height="15" fill="#262564"/>
</g>
</svg>
