<svg width="24" height="24" viewBox="0 0 24 24" fill="none" xmlns="http://www.w3.org/2000/svg">
<mask id="mask0_5710_142652" style="mask-type:alpha" maskUnits="userSpaceOnUse" x="4" y="4" width="16" height="16">
<path fill-rule="evenodd" clip-rule="evenodd" d="M18.8534 6.45054C19.2126 6.09126 19.2126 5.50875 18.8534 5.14947C18.4941 4.79018 17.9116 4.79018 17.5523 5.14947L12.0028 10.6989L6.45335 5.14947C6.09407 4.79018 5.51156 4.79018 5.15227 5.14947C4.79299 5.50875 4.79299 6.09126 5.15227 6.45054L10.7017 12L5.15227 17.5495C4.79299 17.9087 4.79299 18.4913 5.15227 18.8505C5.51156 19.2098 6.09407 19.2098 6.45335 18.8505L12.0028 13.3011L17.5523 18.8505C17.9116 19.2098 18.4941 19.2098 18.8534 18.8505C19.2126 18.4913 19.2126 17.9087 18.8534 17.5495L13.3039 12L18.8534 6.45054Z" fill="#0891B2"/>
</mask>
<g mask="url(#mask0_5710_142652)">
<rect width="24" height="24" fill="#262564"/>
</g>
</svg>
