<svg width="17" height="16" viewBox="0 0 17 16" fill="none" xmlns="http://www.w3.org/2000/svg">
<mask id="mask0_13941_3248" style="mask-type:alpha" maskUnits="userSpaceOnUse" x="0" y="1" width="13" height="14">
<path fill-rule="evenodd" clip-rule="evenodd" d="M9.03333 1.59999C9.03333 1.39797 8.9192 1.2133 8.73851 1.12296C8.55783 1.03262 8.34161 1.05211 8.18 1.17332L4.05556 4.26665H2.1C1.21634 4.26665 0.5 4.983 0.5 5.86665V10.1333C0.5 11.017 1.21634 11.7333 2.1 11.7333H4.05556L8.18 14.8267C8.34161 14.9479 8.55783 14.9674 8.73851 14.877C8.9192 14.7867 9.03333 14.602 9.03333 14.4V1.59999ZM4.55333 5.22665L7.96667 2.66665V13.3333L4.55333 10.7733C4.46102 10.7041 4.34873 10.6667 4.23333 10.6667H2.1C1.80545 10.6667 1.56667 10.4279 1.56667 10.1333V5.86665C1.56667 5.5721 1.80545 5.33332 2.1 5.33332H4.23333C4.34873 5.33332 4.46102 5.29589 4.55333 5.22665ZM11.2552 5.39281C11.1247 5.19662 10.8598 5.14339 10.6637 5.27392C10.4675 5.40445 10.4142 5.66931 10.5448 5.86549C11.4021 7.15404 11.4021 8.84588 10.5448 10.1344C10.4142 10.3306 10.4675 10.5955 10.6637 10.726C10.8598 10.8565 11.1247 10.8033 11.2552 10.6071C12.303 9.03223 12.303 6.96768 11.2552 5.39281Z" fill="#0891B2"/>
</mask>
<g mask="url(#mask0_13941_3248)">
<rect x="0.5" width="16" height="16" fill="black"/>
</g>
</svg>
