<svg width="24" height="24" viewBox="0 0 24 24" fill="none" xmlns="http://www.w3.org/2000/svg">
<mask id="mask0_10974_20085" style="mask-type:alpha" maskUnits="userSpaceOnUse" x="3" y="1" width="21" height="22">
<path fill-rule="evenodd" clip-rule="evenodd" d="M19.4335 1.83431C19.7459 1.52189 20.2524 1.52189 20.5649 1.83431L23.7649 5.03431C24.0773 5.34673 24.0773 5.85326 23.7649 6.16568L17.4567 12.4739C17.3351 12.5955 17.1947 12.6967 17.0408 12.7736L10.757 15.9155C10.449 16.0695 10.077 16.0092 9.8335 15.7657C9.59001 15.5222 9.52965 15.1502 9.68364 14.8422L12.8256 8.55834C12.9025 8.40453 13.0037 8.26412 13.1253 8.14252L19.4335 1.83431ZM19.9992 3.53137L14.2567 9.27389L12.5955 12.5963L13.0029 13.0037L16.3253 11.3425L22.0678 5.6L19.9992 3.53137ZM15.9992 3.2L14.3992 4.8H7.83922C7.15396 4.8 6.68812 4.80062 6.32805 4.83004C5.97732 4.85869 5.79796 4.91063 5.67284 4.97439C5.37178 5.12778 5.12701 5.37255 4.97361 5.67361C4.90986 5.79873 4.85792 5.9781 4.82926 6.32883C4.79984 6.6889 4.79922 7.15473 4.79922 7.84V17.76C4.79922 18.4453 4.79984 18.9111 4.82926 19.2712C4.85792 19.6219 4.90986 19.8013 4.97361 19.9264C5.12701 20.2274 5.37178 20.4722 5.67284 20.6256C5.79796 20.6894 5.97732 20.7413 6.32805 20.77C6.68812 20.7994 7.15396 20.8 7.83922 20.8H17.7592C18.4445 20.8 18.9103 20.7994 19.2704 20.77C19.6211 20.7413 19.8005 20.6894 19.9256 20.6256C20.2267 20.4722 20.4714 20.2274 20.6248 19.9264C20.6886 19.8013 20.7405 19.6219 20.7692 19.2712C20.7986 18.9111 20.7992 18.4453 20.7992 17.76V11.2L22.3992 9.59997V17.76V17.7931C22.3992 18.437 22.3992 18.9685 22.3639 19.4015C22.3271 19.8511 22.2483 20.2645 22.0504 20.6528C21.7436 21.2549 21.2541 21.7444 20.652 22.0512C20.2637 22.2491 19.8504 22.3279 19.4007 22.3646C18.9677 22.4 18.4362 22.4 17.7923 22.4H17.7592H7.83922H7.80616C7.16219 22.4 6.63071 22.4 6.19776 22.3646C5.74808 22.3279 5.33472 22.2491 4.94645 22.0512C4.34433 21.7444 3.85479 21.2549 3.548 20.6528C3.35017 20.2645 3.27132 19.8511 3.23458 19.4015C3.1992 18.9685 3.19921 18.437 3.19922 17.7931V17.793V17.76V7.84V7.80696V7.80691V7.8069C3.19921 7.16295 3.1992 6.63148 3.23458 6.19854C3.27132 5.74886 3.35017 5.3355 3.548 4.94723C3.85479 4.34511 4.34433 3.85557 4.94645 3.54878C5.33472 3.35094 5.74808 3.27209 6.19776 3.23535C6.63071 3.19998 7.16218 3.19999 7.80614 3.2H7.80618H7.83922H15.9992Z" fill="#0891B2"/>
</mask>
<g mask="url(#mask0_10974_20085)">
<rect width="24" height="24" fill="black"/>
</g>
</svg>
