<svg width="28" height="28" viewBox="0 0 28 28" fill="none" xmlns="http://www.w3.org/2000/svg">
<mask id="mask0_10762_20369" style="mask-type:alpha" maskUnits="userSpaceOnUse" x="5" y="1" width="18" height="24">
<path fill-rule="evenodd" clip-rule="evenodd" d="M10.2663 1.86664C9.75081 1.86664 9.33294 2.28451 9.33294 2.79997C9.33294 3.31544 9.75081 3.7333 10.2663 3.7333H17.7329C18.2484 3.7333 18.6663 3.31544 18.6663 2.79997C18.6663 2.28451 18.2484 1.86664 17.7329 1.86664H10.2663ZM5.59961 6.5333C5.59961 6.01784 6.01748 5.59997 6.53294 5.59997H9.33294H18.6663H21.4663C21.9817 5.59997 22.3996 6.01784 22.3996 6.5333C22.3996 7.04877 21.9817 7.46664 21.4663 7.46664H20.5329V22.4C20.5329 23.4309 19.6972 24.2666 18.6663 24.2666H9.33294C8.30201 24.2666 7.46628 23.4309 7.46628 22.4V7.46664L6.53294 7.46664C6.01748 7.46664 5.59961 7.04877 5.59961 6.5333ZM9.33294 7.46664H18.6663V22.4H9.33294V7.46664Z" fill="#0891B2"/>
</mask>
<g mask="url(#mask0_10762_20369)">
<rect width="28" height="28" fill="#6B7280"/>
</g>
</svg>
