<svg width="24" height="24" viewBox="0 0 24 24" fill="none" xmlns="http://www.w3.org/2000/svg">
<mask id="mask0_10974_20056" style="mask-type:alpha" maskUnits="userSpaceOnUse" x="1" y="1" width="22" height="22">
<path fill-rule="evenodd" clip-rule="evenodd" d="M11.9989 1.40305C6.14658 1.40305 1.40234 6.14728 1.40234 11.9996C1.40234 17.8518 6.14658 22.5961 11.9989 22.5961C17.8511 22.5961 22.5954 17.8518 22.5954 11.9996C22.5954 6.14728 17.8511 1.40305 11.9989 1.40305ZM2.92234 11.9996C2.92234 6.98675 6.98605 2.92305 11.9989 2.92305C17.0117 2.92305 21.0754 6.98676 21.0754 11.9996C21.0754 17.0124 17.0117 21.0761 11.9989 21.0761C6.98605 21.0761 2.92234 17.0124 2.92234 11.9996ZM11.9991 6.40002C12.4409 6.40002 12.7991 6.75819 12.7991 7.20002V11.2H16.7991C17.2409 11.2 17.5991 11.5582 17.5991 12C17.5991 12.4418 17.2409 12.8 16.7991 12.8H12.7991V16.8C12.7991 17.2418 12.4409 17.6 11.9991 17.6C11.5572 17.6 11.1991 17.2418 11.1991 16.8V12.8H7.19907C6.75725 12.8 6.39907 12.4418 6.39907 12C6.39907 11.5582 6.75725 11.2 7.19907 11.2H11.1991V7.20002C11.1991 6.75819 11.5572 6.40002 11.9991 6.40002Z" fill="#0891B2"/>
</mask>
<g mask="url(#mask0_10974_20056)">
<rect width="24" height="24" fill="black"/>
</g>
</svg>
