<svg width="28" height="28" viewBox="0 0 28 28" fill="none" xmlns="http://www.w3.org/2000/svg">
<mask id="mask0_10762_20415" style="mask-type:alpha" maskUnits="userSpaceOnUse" x="5" y="1" width="18" height="24">
<path fill-rule="evenodd" clip-rule="evenodd" d="M10.2663 1.8667C9.75081 1.8667 9.33294 2.28457 9.33294 2.80003C9.33294 3.3155 9.75081 3.73337 10.2663 3.73337H17.7329C18.2484 3.73337 18.6663 3.3155 18.6663 2.80003C18.6663 2.28457 18.2484 1.8667 17.7329 1.8667H10.2663ZM5.59961 6.53337C5.59961 6.0179 6.01748 5.60003 6.53294 5.60003H9.33294H18.6663H21.4663C21.9817 5.60003 22.3996 6.0179 22.3996 6.53337C22.3996 7.04883 21.9817 7.4667 21.4663 7.4667H20.5329V22.4C20.5329 23.431 19.6972 24.2667 18.6663 24.2667H9.33294C8.30201 24.2667 7.46628 23.431 7.46628 22.4V7.4667L6.53294 7.4667C6.01748 7.4667 5.59961 7.04883 5.59961 6.53337ZM9.33294 7.4667H18.6663V22.4H9.33294V7.4667Z" fill="#0891B2"/>
</mask>
<g mask="url(#mask0_10762_20415)">
<rect width="28" height="28" fill="#C63838"/>
</g>
</svg>
