<svg width="22" height="22" viewBox="0 0 22 22" fill="none" xmlns="http://www.w3.org/2000/svg">
<g clip-path="url(#clip0_8631_67086)">
<path d="M20.7821 17.2222C20.7821 17.6937 20.5948 18.1459 20.2614 18.4793C19.928 18.8127 19.4758 19 19.0043 19H3.00434C2.53284 19 2.08066 18.8127 1.74726 18.4793C1.41386 18.1459 1.22656 17.6937 1.22656 17.2222V7.44445C1.22656 6.97295 1.41386 6.52076 1.74726 6.18737C2.08066 5.85397 2.53284 5.66667 3.00434 5.66667H6.5599L8.33767 3H13.671L15.4488 5.66667H19.0043C19.4758 5.66667 19.928 5.85397 20.2614 6.18737C20.5948 6.52076 20.7821 6.97295 20.7821 7.44445V17.2222Z" stroke="white" stroke-width="2" stroke-linecap="round" stroke-linejoin="round"/>
<path d="M11.0009 15.4444C12.9645 15.4444 14.5564 13.8526 14.5564 11.8889C14.5564 9.9252 12.9645 8.33333 11.0009 8.33333C9.03719 8.33333 7.44531 9.9252 7.44531 11.8889C7.44531 13.8526 9.03719 15.4444 11.0009 15.4444Z" stroke="white" stroke-width="2" stroke-linecap="round" stroke-linejoin="round"/>
</g>
<defs>
<clipPath id="clip0_8631_67086">
<rect width="21.3333" height="21.3333" fill="white" transform="translate(0.335938 0.333328)"/>
</clipPath>
</defs>
</svg>
