<svg width="24" height="24" viewBox="0 0 24 24" fill="none" xmlns="http://www.w3.org/2000/svg">
<mask id="mask0_13748_38407" style="mask-type:alpha" maskUnits="userSpaceOnUse" x="3" y="1" width="18" height="22">
<path fill-rule="evenodd" clip-rule="evenodd" d="M12.5084 1.89106C12.2272 1.60988 11.7714 1.60988 11.4902 1.89106L6.69018 6.69106C6.409 6.97224 6.409 7.42812 6.69018 7.70929C6.97136 7.99047 7.42724 7.99047 7.70841 7.70929L11.2793 4.13841V15.2C11.2793 15.5976 11.6017 15.92 11.9993 15.92C12.3969 15.92 12.7193 15.5976 12.7193 15.2V4.13841L16.2902 7.70929C16.5714 7.99047 17.0272 7.99047 17.3084 7.70929C17.5896 7.42812 17.5896 6.97224 17.3084 6.69106L12.5084 1.89106ZM3.99922 16C4.44105 16 4.79922 16.3582 4.79922 16.8V19.2C4.79922 20.0862 5.51226 20.8 6.39338 20.8H17.6011C18.4839 20.8 19.1992 20.0845 19.1992 19.2V16.8C19.1992 16.3582 19.5574 16 19.9992 16C20.441 16 20.7992 16.3582 20.7992 16.8V19.2C20.7992 20.9665 19.3692 22.4 17.6011 22.4H6.39338C4.62353 22.4 3.19922 20.9648 3.19922 19.2V16.8C3.19922 16.3582 3.55739 16 3.99922 16Z" fill="#0891B2"/>
</mask>
<g mask="url(#mask0_13748_38407)">
<rect width="24" height="24" fill="black"/>
</g>
</svg>
