<svg width="24" height="24" viewBox="0 0 24 24" fill="none" xmlns="http://www.w3.org/2000/svg">
<mask id="mask0_13748_51278" style="mask-type:alpha" maskUnits="userSpaceOnUse" x="1" y="1" width="22" height="22">
<path fill-rule="evenodd" clip-rule="evenodd" d="M11.9989 1.40283C6.14658 1.40283 1.40234 6.14707 1.40234 11.9994C1.40234 17.8516 6.14658 22.5959 11.9989 22.5959C17.8511 22.5959 22.5954 17.8516 22.5954 11.9994C22.5954 6.14707 17.8511 1.40283 11.9989 1.40283ZM2.92234 11.9994C2.92234 6.98654 6.98605 2.92283 11.9989 2.92283C17.0117 2.92283 21.0754 6.98654 21.0754 11.9994C21.0754 17.0121 17.0117 21.0759 11.9989 21.0759C6.98605 21.0759 2.92234 17.0121 2.92234 11.9994ZM7.19907 11.1998C6.75725 11.1998 6.39907 11.558 6.39907 11.9998C6.39907 12.4416 6.75725 12.7998 7.19907 12.7998H16.7991C17.2409 12.7998 17.5991 12.4416 17.5991 11.9998C17.5991 11.558 17.2409 11.1998 16.7991 11.1998H7.19907Z" fill="#0891B2"/>
</mask>
<g mask="url(#mask0_13748_51278)">
<rect width="24" height="24" fill="black"/>
</g>
</svg>