<svg width="20" height="21" viewBox="0 0 20 21" fill="none" xmlns="http://www.w3.org/2000/svg">
<mask id="mask0_5635_60151" style="mask-type:alpha" maskUnits="userSpaceOnUse" x="2" y="1" width="16" height="19">
<path fill-rule="evenodd" clip-rule="evenodd" d="M4.66602 3.16683C4.29783 3.16683 3.99935 3.46531 3.99935 3.8335V17.1668C3.99935 17.535 4.29783 17.8335 4.66602 17.8335H15.3327C15.7009 17.8335 15.9993 17.535 15.9993 17.1668V8.50016H11.3327C10.9645 8.50016 10.666 8.20169 10.666 7.8335V3.16683H4.66602ZM11.9993 4.10964L15.0565 7.16683H11.9993V4.10964ZM2.66602 3.8335C2.66602 2.72893 3.56145 1.8335 4.66602 1.8335H11.3327C11.5095 1.8335 11.6791 1.90373 11.8041 2.02876L17.1374 7.36209C17.2624 7.48712 17.3327 7.65668 17.3327 7.8335V17.1668C17.3327 18.2714 16.4373 19.1668 15.3327 19.1668H4.66602C3.56145 19.1668 2.66602 18.2714 2.66602 17.1668V3.8335Z" fill="#0891B2"/>
</mask>
<g mask="url(#mask0_5635_60151)">
<rect y="0.5" width="20" height="20" fill="#262564"/>
</g>
</svg>
