<svg width="101" height="32" viewBox="0 0 101 32" fill="none" xmlns="http://www.w3.org/2000/svg">
<rect x="1" y="0.5" width="99" height="31" rx="3.5" stroke="#262564"/>
<mask id="mask0_10694_18408" style="mask-type:alpha" maskUnits="userSpaceOnUse" x="14" y="8" width="13" height="16">
<path fill-rule="evenodd" clip-rule="evenodd" d="M21.6742 9.33425C21.6742 9.87156 21.3132 10.3245 20.8205 10.4639C23.3218 10.629 25.2995 12.7102 25.2995 15.2533V18.9333C25.2995 19.7934 25.3346 20.4879 26.0714 20.8563C26.2926 20.9669 26.4088 21.2151 26.3519 21.4559C26.2951 21.6966 26.0802 21.8667 25.8329 21.8667H21.2051C21.4265 22.0621 21.5662 22.3481 21.5662 22.6667C21.5662 23.2558 21.0886 23.7333 20.4995 23.7333C19.9104 23.7333 19.4328 23.2558 19.4328 22.6667C19.4328 22.3481 19.5725 22.0621 19.794 21.8667H15.1662C14.9189 21.8667 14.704 21.6966 14.6471 21.4559C14.5903 21.2151 14.7064 20.9669 14.9277 20.8563C15.6644 20.4879 15.6995 19.7934 15.6995 18.9333V15.2533C15.6995 12.7097 17.678 10.6282 20.18 10.4638C19.6875 10.3244 19.3266 9.87144 19.3266 9.33425C19.3266 8.68597 19.8521 8.16045 20.5004 8.16045C21.1487 8.16045 21.6742 8.68597 21.6742 9.33425ZM20.4995 11.52C18.4377 11.52 16.7662 13.1915 16.7662 15.2533V18.9333L16.7662 18.9877C16.7667 19.4628 16.7675 20.1689 16.4455 20.8H24.5536C24.2316 20.1689 24.2323 19.4628 24.2328 18.9877L24.2329 18.9333V15.2533C24.2329 13.1915 22.5614 11.52 20.4995 11.52Z" fill="#0891B2"/>
</mask>
<g mask="url(#mask0_10694_18408)">
<rect x="12.5" y="8" width="16" height="16" fill="#262564"/>
</g>
<path d="M37.457 11.8809H38.3184V20.5H37.457V11.8809ZM40.1641 14.125H40.9844V15.2676C41.3125 14.8301 41.6758 14.5039 42.0742 14.2891C42.4727 14.0703 42.9062 13.9609 43.375 13.9609C43.8516 13.9609 44.2734 14.082 44.6406 14.3242C45.0117 14.5664 45.2852 14.8926 45.4609 15.3027C45.6367 15.7129 45.7246 16.3516 45.7246 17.2188V20.5H44.9102V17.459C44.9102 16.7246 44.8789 16.2344 44.8164 15.9883C44.7188 15.5664 44.5352 15.25 44.2656 15.0391C43.9961 14.8242 43.6445 14.7168 43.2109 14.7168C42.7148 14.7168 42.2695 14.8809 41.875 15.209C41.4844 15.5371 41.2266 15.9434 41.1016 16.4277C41.0234 16.7441 40.9844 17.3223 40.9844 18.1621V20.5H40.1641V14.125ZM52.9785 14.125H53.8047V19.2051C53.8047 20.0996 53.7266 20.7539 53.5703 21.168C53.3555 21.7539 52.9824 22.2051 52.4512 22.5215C51.9199 22.8379 51.2812 22.9961 50.5352 22.9961C49.9883 22.9961 49.4961 22.918 49.0586 22.7617C48.625 22.6094 48.2715 22.4023 47.998 22.1406C47.7246 21.8828 47.4727 21.5039 47.2422 21.0039H48.1328C48.375 21.4258 48.6875 21.7383 49.0703 21.9414C49.4531 22.1445 49.9277 22.2461 50.4941 22.2461C51.0527 22.2461 51.5234 22.1406 51.9062 21.9297C52.293 21.7227 52.5684 21.4609 52.7324 21.1445C52.8965 20.8281 52.9785 20.3184 52.9785 19.6152V19.2871C52.6699 19.6777 52.293 19.9785 51.8477 20.1895C51.4023 20.3965 50.9297 20.5 50.4297 20.5C49.8438 20.5 49.293 20.3555 48.7773 20.0664C48.2617 19.7734 47.8633 19.3809 47.582 18.8887C47.3008 18.3965 47.1602 17.8555 47.1602 17.2656C47.1602 16.6758 47.3066 16.127 47.5996 15.6191C47.8926 15.1074 48.2969 14.7031 48.8125 14.4062C49.332 14.1094 49.8789 13.9609 50.4531 13.9609C50.9297 13.9609 51.373 14.0605 51.7832 14.2598C52.1973 14.4551 52.5957 14.7793 52.9785 15.2324V14.125ZM50.5586 14.752C50.0938 14.752 49.6621 14.8652 49.2637 15.0918C48.8652 15.3145 48.5527 15.625 48.3262 16.0234C48.0996 16.418 47.9863 16.8457 47.9863 17.3066C47.9863 18.0059 48.2207 18.584 48.6895 19.041C49.1582 19.498 49.7656 19.7266 50.5117 19.7266C51.2656 19.7266 51.8711 19.5 52.3281 19.0469C52.7891 18.5938 53.0195 17.998 53.0195 17.2598C53.0195 16.7793 52.9141 16.3516 52.7031 15.9766C52.4922 15.5977 52.1934 15.2988 51.8066 15.0801C51.4199 14.8613 51.0039 14.752 50.5586 14.752ZM61.9141 14.125V20.5H61.1055V19.4043C60.7617 19.8223 60.375 20.1367 59.9453 20.3477C59.5195 20.5586 59.0527 20.6641 58.5449 20.6641C57.6426 20.6641 56.8711 20.3379 56.2305 19.6855C55.5938 19.0293 55.2754 18.2324 55.2754 17.2949C55.2754 16.377 55.5977 15.5918 56.2422 14.9395C56.8867 14.2871 57.6621 13.9609 58.5684 13.9609C59.0918 13.9609 59.5645 14.0723 59.9863 14.2949C60.4121 14.5176 60.7852 14.8516 61.1055 15.2969V14.125H61.9141ZM58.6328 14.752C58.1758 14.752 57.7539 14.8652 57.3672 15.0918C56.9805 15.3145 56.6719 15.6289 56.4414 16.0352C56.2148 16.4414 56.1016 16.8711 56.1016 17.3242C56.1016 17.7734 56.2168 18.2031 56.4473 18.6133C56.6777 19.0234 56.9863 19.3438 57.373 19.5742C57.7637 19.8008 58.1816 19.9141 58.627 19.9141C59.0762 19.9141 59.502 19.8008 59.9043 19.5742C60.3066 19.3477 60.6152 19.041 60.8301 18.6543C61.0488 18.2676 61.1582 17.832 61.1582 17.3477C61.1582 16.6094 60.9141 15.9922 60.4258 15.4961C59.9414 15 59.3438 14.752 58.6328 14.752ZM64.4805 11.7578H65.3066V14.125H66.6074V14.8281H65.3066V20.5H64.4805V14.8281H63.3613V14.125H64.4805V11.7578ZM67.8262 11.6641H68.6523V16.6914L71.5996 14.125H72.8066L69.3086 17.166L73.0117 20.5H71.8516L68.6523 17.6348V20.5H67.8262V11.6641ZM80.207 14.125V20.5H79.3984V19.4043C79.0547 19.8223 78.668 20.1367 78.2383 20.3477C77.8125 20.5586 77.3457 20.6641 76.8379 20.6641C75.9355 20.6641 75.1641 20.3379 74.5234 19.6855C73.8867 19.0293 73.5684 18.2324 73.5684 17.2949C73.5684 16.377 73.8906 15.5918 74.5352 14.9395C75.1797 14.2871 75.9551 13.9609 76.8613 13.9609C77.3848 13.9609 77.8574 14.0723 78.2793 14.2949C78.7051 14.5176 79.0781 14.8516 79.3984 15.2969V14.125H80.207ZM76.9258 14.752C76.4688 14.752 76.0469 14.8652 75.6602 15.0918C75.2734 15.3145 74.9648 15.6289 74.7344 16.0352C74.5078 16.4414 74.3945 16.8711 74.3945 17.3242C74.3945 17.7734 74.5098 18.2031 74.7402 18.6133C74.9707 19.0234 75.2793 19.3438 75.666 19.5742C76.0566 19.8008 76.4746 19.9141 76.9199 19.9141C77.3691 19.9141 77.7949 19.8008 78.1973 19.5742C78.5996 19.3477 78.9082 19.041 79.123 18.6543C79.3418 18.2676 79.4512 17.832 79.4512 17.3477C79.4512 16.6094 79.207 15.9922 78.7188 15.4961C78.2344 15 77.6367 14.752 76.9258 14.752ZM82.0586 14.125H82.8789V15.2676C83.207 14.8301 83.5703 14.5039 83.9688 14.2891C84.3672 14.0703 84.8008 13.9609 85.2695 13.9609C85.7461 13.9609 86.168 14.082 86.5352 14.3242C86.9062 14.5664 87.1797 14.8926 87.3555 15.3027C87.5312 15.7129 87.6191 16.3516 87.6191 17.2188V20.5H86.8047V17.459C86.8047 16.7246 86.7734 16.2344 86.7109 15.9883C86.6133 15.5664 86.4297 15.25 86.1602 15.0391C85.8906 14.8242 85.5391 14.7168 85.1055 14.7168C84.6094 14.7168 84.1641 14.8809 83.7695 15.209C83.3789 15.5371 83.1211 15.9434 82.9961 16.4277C82.918 16.7441 82.8789 17.3223 82.8789 18.1621V20.5H82.0586V14.125Z" fill="#262564"/>
</svg>
