<svg width="20" height="20" viewBox="0 0 20 20" fill="none" xmlns="http://www.w3.org/2000/svg">
<mask id="mask0_10843_542" style="mask-type:alpha" maskUnits="userSpaceOnUse" x="2" y="1" width="18" height="18">
<path fill-rule="evenodd" clip-rule="evenodd" d="M16.1946 1.52876C16.4549 1.26841 16.877 1.26841 17.1374 1.52876L19.8041 4.19543C20.0644 4.45577 20.0644 4.87788 19.8041 5.13823L14.5472 10.3951C14.4459 10.4964 14.3289 10.5807 14.2007 10.6448L8.96413 13.2631C8.70747 13.3914 8.39749 13.3411 8.19458 13.1382C7.99168 12.9353 7.94137 12.6253 8.0697 12.3687L10.688 7.13212C10.7521 7.00394 10.8364 6.88693 10.9377 6.78559L16.1946 1.52876ZM16.666 2.94297L11.8806 7.7284L10.4962 10.4971L10.8358 10.8366L13.6044 9.45226L18.3898 4.66683L16.666 2.94297ZM13.3327 2.66683L11.9993 4.00016H6.53268C5.96163 4.00016 5.57344 4.00068 5.27338 4.0252C4.9811 4.04908 4.83163 4.09236 4.72736 4.14549C4.47648 4.27332 4.27251 4.47729 4.14468 4.72817C4.09155 4.83244 4.04826 4.98191 4.02438 5.27419C3.99987 5.57425 3.99935 5.96244 3.99935 6.53349V14.8002C3.99935 15.3712 3.99987 15.7594 4.02438 16.0595C4.04826 16.3517 4.09155 16.5012 4.14468 16.6055C4.27251 16.8564 4.47648 17.0603 4.72736 17.1882C4.83163 17.2413 4.9811 17.2846 5.27338 17.3085C5.57344 17.333 5.96163 17.3335 6.53268 17.3335H14.7993C15.3704 17.3335 15.7586 17.333 16.0587 17.3085C16.3509 17.2846 16.5004 17.2413 16.6047 17.1882C16.8556 17.0603 17.0595 16.8564 17.1874 16.6055C17.2405 16.5012 17.2838 16.3517 17.3076 16.0595C17.3322 15.7594 17.3327 15.3712 17.3327 14.8002V9.33347L18.666 8.00014V14.8002V14.8277C18.666 15.3644 18.666 15.8073 18.6366 16.168C18.6059 16.5428 18.5402 16.8872 18.3754 17.2108C18.1197 17.7126 17.7118 18.1205 17.21 18.3762C16.8864 18.541 16.542 18.6068 16.1672 18.6374C15.8064 18.6668 15.3635 18.6668 14.8269 18.6668H14.7993H6.53268H6.50513C5.96849 18.6668 5.52559 18.6668 5.1648 18.6374C4.79007 18.6068 4.4456 18.541 4.12204 18.3762C3.62028 18.1205 3.21233 17.7126 2.95667 17.2108C2.79181 16.8872 2.7261 16.5428 2.69548 16.168C2.666 15.8073 2.66601 15.3644 2.66602 14.8277V14.8277V14.8002V6.53349V6.50596V6.50592V6.50592C2.66601 5.96929 2.666 5.5264 2.69548 5.16561C2.7261 4.79088 2.79181 4.44641 2.95667 4.12285C3.21233 3.62109 3.62028 3.21314 4.12204 2.95748C4.4456 2.79262 4.79007 2.72691 5.1648 2.69629C5.52559 2.66681 5.96848 2.66682 6.50511 2.66683H6.50515H6.53268H13.3327Z" fill="#0891B2"/>
</mask>
<g mask="url(#mask0_10843_542)">
<rect width="20" height="20" fill="#262564"/>
</g>
</svg>
