<svg width="20" height="21" viewBox="0 0 20 21" fill="none" xmlns="http://www.w3.org/2000/svg">
<mask id="mask0_12484_21435" style="mask-type:alpha" maskUnits="userSpaceOnUse" x="0" y="3" width="20" height="15">
<path fill-rule="evenodd" clip-rule="evenodd" d="M2.66667 4.49996C1.93029 4.49996 1.33333 5.09691 1.33333 5.83329V15.1666C1.33333 15.903 1.93029 16.5 2.66667 16.5H17.3333C18.0697 16.5 18.6667 15.903 18.6667 15.1666V5.83329C18.6667 5.09691 18.0697 4.49996 17.3333 4.49996H2.66667ZM0 5.83329C0 4.36053 1.19391 3.16663 2.66667 3.16663H17.3333C18.8061 3.16663 20 4.36053 20 5.83329V15.1666C20 16.6394 18.8061 17.8333 17.3333 17.8333H2.66667C1.19391 17.8333 0 16.6394 0 15.1666V5.83329ZM2.66667 6.16663C2.66667 5.98253 2.81591 5.83329 3 5.83329H6.33333C6.51743 5.83329 6.66667 5.98253 6.66667 6.16663V8.17268C6.66667 8.35678 6.51743 8.50602 6.33333 8.50602H3C2.81591 8.50602 2.66667 8.35678 2.66667 8.17268V6.16663ZM16.1347 10.6122C16.1347 12.5276 14.582 14.0803 12.6666 14.0803C10.7513 14.0803 9.19857 12.5276 9.19857 10.6122C9.19857 8.69687 10.7513 7.14417 12.6666 7.14417C14.582 7.14417 16.1347 8.69687 16.1347 10.6122ZM17.468 10.6122C17.468 13.264 15.3184 15.4136 12.6666 15.4136C10.0149 15.4136 7.86523 13.264 7.86523 10.6122C7.86523 7.96049 10.0149 5.81083 12.6666 5.81083C15.3184 5.81083 17.468 7.96049 17.468 10.6122Z" fill="#0891B2"/>
</mask>
<g mask="url(#mask0_12484_21435)">
<rect y="0.5" width="20" height="20" fill="black"/>
</g>
</svg>
