<svg width="24" height="24" viewBox="0 0 24 24" fill="none" xmlns="http://www.w3.org/2000/svg">
<mask id="mask0_10734_6422" style="mask-type:alpha" maskUnits="userSpaceOnUse" x="1" y="1" width="22" height="22">
<path fill-rule="evenodd" clip-rule="evenodd" d="M2.95938 12C2.95938 7.46335 6.49509 2.95999 11.9994 2.95999C16.4447 2.95999 18.6418 6.25026 19.5781 8.00002H16.7994C16.3576 8.00002 15.9994 8.3582 15.9994 8.80002C15.9994 9.24185 16.3576 9.60002 16.7994 9.60002H21.5994C22.0412 9.60002 22.3994 9.24185 22.3994 8.80002V4.00002C22.3994 3.5582 22.0412 3.20002 21.5994 3.20002C21.1576 3.20002 20.7994 3.5582 20.7994 4.00002V6.90111C19.6722 4.91403 17.0649 1.35999 11.9994 1.35999C5.49886 1.35999 1.35938 6.69662 1.35938 12C1.35938 17.3033 5.49886 22.64 11.9994 22.64C15.1095 22.64 17.699 21.4094 19.5426 19.5334C20.5298 18.529 21.3007 17.3424 21.8264 16.0652C21.9945 15.6566 21.7996 15.1891 21.391 15.0209C20.9825 14.8528 20.5149 15.0477 20.3468 15.4563C19.8974 16.5481 19.2395 17.5593 18.4015 18.4119C16.8466 19.994 14.6635 21.04 11.9994 21.04C6.49509 21.04 2.95938 16.5366 2.95938 12Z" fill="#0891B2"/>
</mask>
<g mask="url(#mask0_10734_6422)">
<rect width="24" height="24" fill="black"/>
</g>
</svg>
