<svg width="22" height="22" viewBox="0 0 22 22" fill="none" xmlns="http://www.w3.org/2000/svg">
<path d="M9.22244 4.77762H12.778C12.778 3.79578 11.9821 2.99984 11.0002 2.99984C10.0184 2.99984 9.22244 3.79578 9.22244 4.77762ZM7.88911 4.77762C7.88911 3.05939 9.28199 1.6665 11.0002 1.6665C12.7184 1.6665 14.1113 3.05939 14.1113 4.77762H19.2224C19.5906 4.77762 19.8891 5.0761 19.8891 5.44428C19.8891 5.81247 19.5906 6.11095 19.2224 6.11095H18.0499L17.0081 16.8765C16.8428 18.5851 15.4069 19.8887 13.6903 19.8887H8.31016C6.59359 19.8887 5.15768 18.5851 4.99233 16.8765L3.95051 6.11095H2.77799C2.40981 6.11095 2.11133 5.81247 2.11133 5.44428C2.11133 5.0761 2.40981 4.77762 2.77799 4.77762H7.88911ZM9.66688 8.99984C9.66688 8.63165 9.36839 8.33317 9.00022 8.33317C8.63203 8.33317 8.33355 8.63165 8.33355 8.99984V15.6665C8.33355 16.0347 8.63203 16.3332 9.00022 16.3332C9.36839 16.3332 9.66688 16.0347 9.66688 15.6665V8.99984ZM13.0002 8.33317C13.3684 8.33317 13.6669 8.63165 13.6669 8.99984V15.6665C13.6669 16.0347 13.3684 16.3332 13.0002 16.3332C12.632 16.3332 12.3335 16.0347 12.3335 15.6665V8.99984C12.3335 8.63165 12.632 8.33317 13.0002 8.33317ZM6.31947 16.748C6.41868 17.7732 7.28022 18.5554 8.31016 18.5554H13.6903C14.7202 18.5554 15.5817 17.7732 15.6809 16.748L16.7104 6.11095H5.29007L6.31947 16.748Z" fill="#C63838"/>
</svg>
